<?xml version="1.0" encoding="UTF-8"?><svg id="Capa_1" xmlns="http://www.w3.org/2000/svg" viewBox="0 0 560 98"><defs><style>.cls-1{fill:#f96f00;}</style></defs><path class="cls-1" d="M73.26,62.98c-4.84,8.38-13.89,14.02-24.26,14.02-15.46,0-28-12.54-28-28s12.54-28,28-28c10.37,0,19.42,5.64,24.26,14.02l19.22-8.61C84.31,10.72,67.91,0,49,0,21.94,0,0,21.94,0,49s21.94,49,49,49c18.91,0,35.31-10.72,43.48-26.41l-19.22-8.61Z"/><path class="cls-1" d="M77,49c0,.1,0,.21,0,.31l20.11,9.01c.58-3.02.9-6.13.9-9.32s-.31-6.3-.9-9.32l-20.11,9.01c0,.1,0,.21,0,.31Z"/><circle class="cls-1" cx="49" cy="49" r="14"/><path class="cls-1" d="M139.75,55.54c-.51.75-1.18,1.34-2.03,1.76-.85.42-1.86.64-3.04.64-1.57,0-2.85-.36-3.85-1.08-1-.72-1.73-1.71-2.21-2.99-.47-1.27-.71-2.7-.71-4.26s.25-3.08.74-4.34c.49-1.26,1.23-2.25,2.23-2.96,1-.72,2.25-1.08,3.75-1.08,1.73,0,3.09.46,4.09,1.37,1,.92,1.58,2.06,1.74,3.43h6.62c-.13-2.12-.74-3.98-1.84-5.59-1.09-1.6-2.56-2.85-4.39-3.75s-3.9-1.35-6.22-1.35-4.17.38-5.86,1.15c-1.68.77-3.1,1.8-4.24,3.09-1.14,1.29-2,2.76-2.57,4.41-.57,1.65-.86,3.37-.86,5.17v.93c0,1.7.28,3.37.83,5,.55,1.63,1.4,3.1,2.52,4.41s2.53,2.35,4.21,3.14c1.68.78,3.68,1.18,6,1.18s4.45-.46,6.3-1.37c1.84-.91,3.33-2.18,4.46-3.8s1.76-3.5,1.89-5.66h-6.62c-.13.95-.45,1.8-.96,2.55Z"/><path class="cls-1" d="M159.72,38.88c-1.24,1.48-2,3.5-2.3,6.05v-8.65h-5.39v26.61h6.81v-13.87c0-2.32.63-4.09,1.89-5.32,1.26-1.22,3.03-1.84,5.32-1.84h1.86v-5.93h-.98c-3.17,0-5.57.98-7.2,2.94Z"/><path class="cls-1" d="M175.5,33.09c1.34,0,2.32-.35,2.94-1.05.62-.7.93-1.59.93-2.67s-.31-1.96-.93-2.65c-.62-.69-1.6-1.03-2.94-1.03s-2.33.34-2.96,1.03c-.64.69-.96,1.57-.96,2.65s.32,1.97.96,2.67c.64.7,1.62,1.05,2.96,1.05Z"/><polygon class="cls-1" points="169.27 36.28 169.27 41.37 173 41.37 173 62.88 179.81 62.88 179.81 41.37 179.81 36.28 173 36.28 169.27 36.28"/><path class="cls-1" d="M211.78,39.37c-1.09-1.24-2.4-2.21-3.92-2.89-1.52-.69-3.23-1.03-5.12-1.03-2.06,0-3.92.45-5.59,1.35-1.67.9-3,2.26-3.99,4.09-.34.63-.62,1.33-.86,2.07v-6.68h-5.39v36.41h6.81v-13.38c.95,1.41,2.13,2.49,3.55,3.21,1.65.83,3.47,1.25,5.46,1.25s3.61-.35,5.14-1.05,2.85-1.68,3.94-2.94,1.93-2.71,2.5-4.36c.57-1.65.86-3.44.86-5.37v-1.03c0-1.89-.29-3.67-.88-5.32-.59-1.65-1.43-3.09-2.52-4.34ZM207.44,53.94c-.62,1.29-1.48,2.29-2.57,3.01s-2.38,1.08-3.85,1.08c-1.27,0-2.48-.29-3.63-.88-1.14-.59-2.08-1.42-2.79-2.5-.72-1.08-1.08-2.38-1.08-3.92v-1.96c0-1.6.35-2.97,1.05-4.12s1.62-2.01,2.74-2.6,2.36-.88,3.7-.88c1.47,0,2.75.35,3.85,1.05,1.09.7,1.95,1.67,2.57,2.92.62,1.24.93,2.71.93,4.41s-.31,3.1-.93,4.39Z"/><path class="cls-1" d="M227.63,28.78h-6.37l-.02,7.5h-4.25v5h4.24l-.02,11.61c0,2.58.39,4.63,1.18,6.15.78,1.52,1.97,2.6,3.55,3.23,1.58.64,3.6.96,6.05.96h3.82v-5.83h-4.17c-1.31,0-2.31-.35-3.01-1.05s-1.05-1.71-1.05-3.01l.02-12.05h8.21v-5h-8.2v-7.5Z"/><path class="cls-1" d="M264.11,39.49c-1.26-1.29-2.79-2.3-4.58-3.04-1.8-.74-3.82-1.1-6.08-1.1s-4.28.37-6.08,1.1c-1.8.74-3.32,1.75-4.58,3.04-1.26,1.29-2.22,2.76-2.89,4.41-.67,1.65-1,3.39-1,5.22v1.03c0,1.76.32,3.46.96,5.1s1.58,3.09,2.82,4.38c1.24,1.29,2.76,2.31,4.56,3.06s3.87,1.13,6.22,1.13,4.38-.38,6.17-1.13c1.8-.75,3.32-1.77,4.56-3.06,1.24-1.29,2.18-2.75,2.82-4.38.64-1.63.96-3.33.96-5.1v-1.03c0-1.83-.33-3.57-.98-5.22s-1.61-3.12-2.87-4.41ZM260.27,53.89c-.59,1.26-1.45,2.25-2.6,2.99-1.14.74-2.55,1.1-4.21,1.1s-3.07-.37-4.21-1.1c-1.14-.73-2.02-1.73-2.62-2.99s-.91-2.69-.91-4.29.31-3.08.93-4.34,1.51-2.25,2.67-2.99c1.16-.74,2.54-1.1,4.14-1.1s2.98.37,4.14,1.1c1.16.74,2.04,1.73,2.65,2.99s.91,2.7.91,4.34-.29,3.03-.88,4.29Z"/><path class="cls-1" d="M309.66,36.84c-1.37-.93-3.09-1.4-5.15-1.4h-.29c-2.03,0-3.72.47-5.07,1.4-1.36.93-2.38,2.3-3.09,4.12-.07.17-.11.37-.18.55-.06-.18-.1-.38-.17-.55-.67-1.81-1.68-3.18-3.04-4.12-1.36-.93-3.06-1.4-5.12-1.4h-.29c-2.03,0-3.72.47-5.07,1.4-1.36.93-2.38,2.3-3.06,4.12-.22.58-.39,1.22-.54,1.89v-6.57h-5.39v26.61h6.81v-15.63c0-1.73.47-3.11,1.42-4.14s2.21-1.54,3.77-1.54,2.78.5,3.63,1.5c.85,1,1.27,2.33,1.27,3.99v15.83h6.81v-15.63c0-1.73.47-3.11,1.42-4.14s2.21-1.54,3.77-1.54,2.78.5,3.63,1.5c.85,1,1.27,2.33,1.27,3.99v15.83h6.81v-15.19c0-2.68-.35-4.92-1.05-6.74-.7-1.81-1.74-3.18-3.11-4.12Z"/><path class="cls-1" d="M343.84,39.49c-1.26-1.29-2.79-2.3-4.58-3.04-1.8-.74-3.82-1.1-6.08-1.1s-4.28.37-6.08,1.1c-1.8.74-3.32,1.75-4.58,3.04-1.26,1.29-2.22,2.76-2.89,4.41-.67,1.65-1,3.39-1,5.22v1.03c0,1.76.32,3.46.96,5.1s1.58,3.09,2.82,4.38c1.24,1.29,2.76,2.31,4.56,3.06s3.87,1.13,6.22,1.13,4.38-.38,6.17-1.13c1.8-.75,3.32-1.77,4.56-3.06,1.24-1.29,2.18-2.75,2.82-4.38.64-1.63.96-3.33.96-5.1v-1.03c0-1.83-.33-3.57-.98-5.22s-1.61-3.12-2.87-4.41ZM339.99,53.89c-.59,1.26-1.45,2.25-2.6,2.99-1.14.74-2.55,1.1-4.21,1.1s-3.07-.37-4.21-1.1c-1.14-.73-2.02-1.73-2.62-2.99s-.91-2.69-.91-4.29.31-3.08.93-4.34,1.51-2.25,2.67-2.99c1.16-.74,2.54-1.1,4.14-1.1s2.98.37,4.14,1.1c1.16.74,2.04,1.73,2.65,2.99s.91,2.7.91,4.34-.29,3.03-.88,4.29Z"/><path class="cls-1" d="M367.72,35.44h-.29c-2.12,0-3.9.46-5.32,1.37-1.42.92-2.49,2.28-3.21,4.09-.24.61-.43,1.29-.59,2v-6.63h-5.39v26.61h6.81v-15.63c0-1.73.51-3.11,1.54-4.14s2.38-1.54,4.04-1.54,2.92.51,3.85,1.52c.93,1.01,1.4,2.34,1.4,3.97v15.83h6.81v-15.24c0-4.05-.82-7.1-2.45-9.14-1.63-2.04-4.04-3.06-7.2-3.06Z"/><path class="cls-1" d="M402.78,37.23c-1.94-1.26-4.35-1.89-7.23-1.89-2.19,0-4.12.38-5.78,1.15-1.67.77-3.06,1.8-4.19,3.09-1.13,1.29-1.98,2.76-2.55,4.41-.57,1.65-.86,3.36-.86,5.12v.93c0,1.7.29,3.37.86,5,.57,1.63,1.42,3.11,2.55,4.43s2.55,2.38,4.26,3.16,3.72,1.18,6,1.18,4.14-.38,5.86-1.13,3.13-1.81,4.24-3.18c1.11-1.37,1.86-2.97,2.25-4.8h-6.27c-.29.98-.96,1.8-2.01,2.47-1.05.67-2.4,1-4.07,1s-3.04-.37-4.12-1.1c-1.08-.73-1.88-1.75-2.4-3.04-.35-.85-.57-1.8-.68-2.82h19.99v-2.45c0-2.35-.49-4.55-1.47-6.59-.98-2.04-2.44-3.69-4.38-4.95ZM391.73,42.01c1.04-.69,2.32-1.03,3.82-1.03s2.75.33,3.75.98c1,.65,1.74,1.58,2.23,2.79.28.69.47,1.46.59,2.3h-13.36c.13-.75.33-1.45.6-2.08.54-1.29,1.33-2.28,2.38-2.96Z"/><path class="cls-1" d="M433.29,40.11c-.89-1.43-2-2.55-3.36-3.32-1.58-.9-3.42-1.35-5.51-1.35-1.9,0-3.62.35-5.17,1.05-1.55.7-2.88,1.67-3.97,2.92-1.09,1.24-1.94,2.69-2.55,4.36-.61,1.67-.91,3.45-.91,5.34v1.03c0,1.93.31,3.72.93,5.37.62,1.65,1.5,3.09,2.65,4.34,1.14,1.24,2.5,2.21,4.07,2.89,1.57.69,3.28,1.03,5.15,1.03,2.09,0,3.96-.45,5.61-1.35,1.65-.9,2.98-2.25,3.99-4.07.18-.33.34-.69.49-1.05v5.58h5.39V27.12h-6.81v13ZM433.48,50.39c0,1.57-.33,2.93-1,4.09-.67,1.16-1.56,2.04-2.67,2.65-1.11.61-2.34.91-3.67.91-1.44,0-2.72-.34-3.85-1.03-1.13-.69-2.02-1.66-2.67-2.92-.65-1.26-.98-2.74-.98-4.43s.32-3.18.96-4.46c.64-1.27,1.52-2.26,2.65-2.96,1.13-.7,2.43-1.05,3.9-1.05,1.31,0,2.51.29,3.63.86,1.11.57,2.01,1.39,2.7,2.45.69,1.06,1.03,2.38,1.03,3.94v1.96Z"/><path class="cls-1" d="M463.1,36.96c-1.81-.72-4.09-1.08-6.83-1.08-.88,0-1.82,0-2.82.02-1,.02-1.97.06-2.92.12s-1.8.13-2.55.2v5.78c.91-.07,1.95-.12,3.11-.17,1.16-.05,2.31-.09,3.46-.12,1.14-.03,2.12-.05,2.94-.05,1.57,0,2.73.38,3.48,1.13.75.75,1.13,1.89,1.13,3.43v.25h-5.44c-2.35,0-4.4.31-6.15.93-1.75.62-3.1,1.55-4.07,2.79-.96,1.24-1.45,2.84-1.45,4.8,0,1.8.4,3.33,1.2,4.61.8,1.27,1.93,2.25,3.38,2.94,1.45.69,3.14,1.03,5.07,1.03s3.44-.33,4.73-1c1.29-.67,2.3-1.64,3.04-2.92.33-.57.59-1.21.81-1.9v5.14h5.39v-16.51c0-2.48-.47-4.49-1.4-6.03-.93-1.54-2.3-2.66-4.12-3.38ZM459.18,58.21c-.8.34-1.67.51-2.62.51-1.57,0-2.77-.38-3.6-1.13-.83-.75-1.25-1.73-1.25-2.94s.42-2.2,1.25-2.96,2.03-1.15,3.6-1.15h5.54v2.5c-.07,1.44-.37,2.57-.91,3.41-.54.83-1.21,1.42-2.01,1.76Z"/><path class="cls-1" d="M493.77,49.36c-1.78-1.4-4.24-2.27-7.38-2.6l-2.35-.25c-1.44-.16-2.47-.47-3.11-.93-.64-.46-.96-1.11-.96-1.96s.39-1.6,1.18-2.16c.78-.55,1.89-.83,3.33-.83,1.6,0,2.83.33,3.68.98.85.65,1.31,1.44,1.37,2.35h6.12c-.1-2.78-1.16-4.88-3.18-6.32-2.03-1.44-4.67-2.16-7.94-2.16-2.09,0-3.95.32-5.56.96-1.62.64-2.88,1.58-3.8,2.82-.92,1.24-1.37,2.78-1.37,4.61,0,2.29.8,4.12,2.4,5.49,1.6,1.37,3.89,2.22,6.86,2.55l2.35.24c1.76.16,3.01.51,3.75,1.03.74.52,1.1,1.23,1.1,2.11,0,1.01-.48,1.81-1.45,2.4-.96.59-2.26.88-3.9.88-1.96,0-3.4-.38-4.31-1.13-.91-.75-1.42-1.58-1.52-2.5h-6.12c.1,2.74,1.18,4.89,3.26,6.44,2.07,1.55,4.94,2.33,8.6,2.33,2.35,0,4.39-.36,6.12-1.08,1.73-.72,3.08-1.72,4.04-3.01.96-1.29,1.45-2.82,1.45-4.58,0-2.38-.89-4.28-2.67-5.68Z"/><rect class="cls-1" x="500.76" y="58.03" width="4.61" height="4.85"/><path class="cls-1" d="M528.71,37.89c-1.81-1.21-4.08-1.81-6.79-1.81-2.12,0-3.98.38-5.56,1.15-1.58.77-2.9,1.79-3.94,3.06-1.05,1.27-1.82,2.71-2.33,4.31-.51,1.6-.76,3.23-.76,4.9v.69c0,1.7.25,3.35.76,4.95.51,1.6,1.28,3.05,2.33,4.34,1.04,1.29,2.38,2.32,4.02,3.09,1.63.77,3.56,1.15,5.78,1.15,2.06,0,3.89-.34,5.49-1.03,1.6-.69,2.92-1.66,3.97-2.92,1.04-1.26,1.73-2.75,2.06-4.48h-3.43c-.33,1.4-1.19,2.62-2.6,3.65-1.41,1.03-3.23,1.54-5.49,1.54-2.12,0-3.88-.47-5.27-1.42-1.39-.95-2.42-2.23-3.09-3.85-.6-1.44-.91-3.02-.98-4.73h21.29v-1.91c0-2.16-.46-4.17-1.37-6.05-.92-1.88-2.28-3.42-4.09-4.63ZM513.86,44.51c.67-1.57,1.67-2.83,3.01-3.77,1.34-.95,3.02-1.42,5.05-1.42s3.54.42,4.83,1.25c1.29.83,2.27,1.98,2.94,3.43.5,1.08.81,2.3.94,3.65h-17.6c.16-1.12.43-2.17.84-3.14Z"/><path class="cls-1" d="M556.64,50.39c-1.65-1.21-3.78-1.96-6.39-2.25l-2.94-.29c-1.6-.16-2.78-.6-3.53-1.3-.75-.7-1.13-1.59-1.13-2.67,0-1.27.5-2.35,1.49-3.23,1-.88,2.51-1.32,4.53-1.32s3.45.42,4.46,1.27,1.54,1.89,1.57,3.14h3.43c-.03-2.42-.92-4.28-2.67-5.59-1.75-1.31-4.01-1.96-6.79-1.96-1.93,0-3.6.32-5.02.96-1.42.64-2.52,1.53-3.31,2.67-.78,1.14-1.18,2.48-1.18,4.02,0,2.09.73,3.73,2.18,4.92,1.45,1.19,3.36,1.92,5.71,2.18l2.94.29c1.83.2,3.23.65,4.19,1.35.96.7,1.45,1.69,1.45,2.96,0,1.37-.58,2.54-1.74,3.5-1.16.96-2.9,1.45-5.22,1.45-2.48,0-4.25-.51-5.32-1.52s-1.62-2.14-1.69-3.38h-3.43c.03,2.45.95,4.4,2.74,5.86,1.8,1.45,4.36,2.18,7.69,2.18,2.09,0,3.92-.34,5.49-1.03,1.57-.69,2.79-1.64,3.65-2.87.87-1.23,1.3-2.61,1.3-4.14,0-2.25-.83-3.99-2.47-5.19Z"/></svg>